<svg width="16" height="16" viewBox="0 0 16 16" fill="none" xmlns="http://www.w3.org/2000/svg">
<path fill-rule="evenodd" clip-rule="evenodd" d="M4.00004 8.00001H4.66671C6.13947 8.00001 7.33337 9.19392 7.33337 10.6667V12C7.33337 13.4728 6.13947 14.6667 4.66671 14.6667H4.00004C2.52728 14.6667 1.33337 13.4728 1.33337 12V10.6667C1.33337 9.19392 2.52728 8.00001 4.00004 8.00001ZM4.00004 9.33334C3.26366 9.33334 2.66671 9.9303 2.66671 10.6667V12C2.66671 12.7364 3.26366 13.3333 4.00004 13.3333H4.66671C5.40309 13.3333 6.00004 12.7364 6.00004 12V10.6667C6.00004 9.9303 5.40309 9.33334 4.66671 9.33334H4.00004ZM3.66671 1.33334C4.95537 1.33334 6.00004 2.37801 6.00004 3.66668V4.33334C6.00004 5.62201 4.95537 6.66668 3.66671 6.66668C2.37804 6.66668 1.33337 5.62201 1.33337 4.33334V3.66668C1.33337 2.37801 2.37804 1.33334 3.66671 1.33334ZM3.66671 2.66668C3.11442 2.66668 2.66671 3.11439 2.66671 3.66668V4.33334C2.66671 4.88563 3.11442 5.33334 3.66671 5.33334C4.21899 5.33334 4.66671 4.88563 4.66671 4.33334V3.66668C4.66671 3.11439 4.21899 2.66668 3.66671 2.66668ZM11.3334 7.33334H12C13.4728 7.33334 14.6667 8.52725 14.6667 10V12C14.6667 13.4728 13.4728 14.6667 12 14.6667H11.3334C9.86061 14.6667 8.66671 13.4728 8.66671 12V10C8.66671 8.52725 9.86061 7.33334 11.3334 7.33334ZM11.3334 8.66668C10.597 8.66668 10 9.26363 10 10V12C10 12.7364 10.597 13.3333 11.3334 13.3333H12C12.7364 13.3333 13.3334 12.7364 13.3334 12V10C13.3334 9.26363 12.7364 8.66668 12 8.66668H11.3334ZM9.66671 1.33334H12.3334C13.622 1.33334 14.6667 2.37801 14.6667 3.66668C14.6667 4.95534 13.622 6.00001 12.3334 6.00001H9.66671C8.37804 6.00001 7.33337 4.95534 7.33337 3.66668C7.33337 2.37801 8.37804 1.33334 9.66671 1.33334ZM9.66671 2.66668C9.11442 2.66668 8.66671 3.11439 8.66671 3.66668C8.66671 4.21896 9.11442 4.66668 9.66671 4.66668H12.3334C12.8857 4.66668 13.3334 4.21896 13.3334 3.66668C13.3334 3.11439 12.8857 2.66668 12.3334 2.66668H9.66671Z" fill="#92929D"/>
</svg>
