<svg width="16" height="17" viewBox="0 0 16 17" fill="none" xmlns="http://www.w3.org/2000/svg">
<path fill-rule="evenodd" clip-rule="evenodd" d="M5.66342 4.36666C5.62997 4.70355 5.34573 4.96666 5.00004 4.96666C4.65435 4.96666 4.37011 4.70355 4.33667 4.36666H2.66671V5.43333H13.3334V4.36666H12.2634C12.23 4.70355 11.9457 4.96666 11.6 4.96666C11.2543 4.96666 10.9701 4.70355 10.9367 4.36666H5.66342ZM5.6634 4.36666H10.9366H5.6634ZM4.33337 3.03334V2.50001C4.33337 2.13182 4.63185 1.83334 5.00004 1.83334C5.36823 1.83334 5.66671 2.13182 5.66671 2.50001V3.03334H10.9334V2.50001C10.9334 2.13182 11.2319 1.83334 11.6 1.83334C11.9682 1.83334 12.2667 2.13182 12.2667 2.50001V3.03334H13.4C14.0996 3.03334 14.6667 3.60045 14.6667 4.30001V13.1667C14.6667 14.2712 13.7713 15.1667 12.6667 15.1667H3.33337C2.2288 15.1667 1.33337 14.2712 1.33337 13.1667V4.30001C1.33337 3.60045 1.90048 3.03334 2.60004 3.03334H4.33337ZM13.3334 6.76671H2.66671V13.1667C2.66671 13.5349 2.96518 13.8334 3.33337 13.8334H12.6667C13.0349 13.8334 13.3334 13.5349 13.3334 13.1667V6.76671ZM4.40001 9.16668C4.03182 9.16668 3.73334 8.8682 3.73334 8.50001C3.73334 8.13182 4.03182 7.83334 4.40001 7.83334H6.80001C7.1682 7.83334 7.46667 8.13182 7.46667 8.50001C7.46667 8.8682 7.1682 9.16668 6.80001 9.16668H4.40001ZM4.40001 11.5666C4.03182 11.5666 3.73334 11.2682 3.73334 10.9C3.73334 10.5318 4.03182 10.2333 4.40001 10.2333H9.20001C9.5682 10.2333 9.86668 10.5318 9.86668 10.9C9.86668 11.2682 9.5682 11.5666 9.20001 11.5666H4.40001Z" fill="#92929D"/>
</svg>
