<svg width="16" height="16" viewBox="0 0 16 16" fill="none" xmlns="http://www.w3.org/2000/svg">
<path fill-rule="evenodd" clip-rule="evenodd" d="M3.12198 3.12194C0.737174 5.50675 0.737174 9.37327 3.12198 11.7581C5.39274 14.0288 9.00691 14.1374 11.4061 12.0838L13.7868 14.4644L13.7868 14.4644L13.7868 14.4644C14.4153 15.093 15.3582 14.1502 14.7296 13.5216L12.3202 11.1122C14.1253 8.71956 13.9379 5.30177 11.7581 3.12194C9.3733 0.737143 5.50678 0.737143 3.12198 3.12194ZM4.06478 4.06475C5.92889 2.20065 8.95119 2.20065 10.8153 4.06475C12.6794 5.92886 12.6794 8.95116 10.8153 10.8153C8.95119 12.6794 5.92889 12.6794 4.06478 10.8153C2.20068 8.95116 2.20068 5.92886 4.06478 4.06475Z" fill="#0062FF"/>
</svg>
